Coordinates
version=1
nRows=7
nColumns=63
inDegrees=yes

Units are S.I. units (second, meters, Newtons, ...)
If the header above contains a line with 'inDegrees', this indicates whether rotational values are in degrees (yes) or radians (no).

endheader
time	pelvis_tilt	pelvis_list	pelvis_rotation	pelvis_tx	pelvis_ty	pelvis_tz	hip_flexion_r	hip_adduction_r	hip_rotation_r	knee_angle_r	knee_angle_r_beta	ankle_angle_r	subtalar_angle_r	mtp_angle_r	hip_flexion_l	hip_adduction_l	hip_rotation_l	knee_angle_l	knee_angle_l_beta	ankle_angle_l	subtalar_angle_l	mtp_angle_l	L5_S1_Flex_Ext	L5_S1_Lat_Bending	L5_S1_axial_rotation	L4_L5_Flex_Ext	L4_L5_Lat_Bending	L4_L5_axial_rotation	L3_L4_Flex_Ext	L3_L4_Lat_Bending	L3_L4_axial_rotation	L2_L3_Flex_Ext	L2_L3_Lat_Bending	L2_L3_axial_rotation	L1_L2_Flex_Ext	L1_L2_Lat_Bending	L1_L2_axial_rotation	L1_T12_Flex_Ext	L1_T12_Lat_Bending	L1_T12_axial_rotation	Abs_r3	Abs_r2	Abs_r1	Abs_t1	Abs_t2	neck_flexion	neck_bending	neck_rotation	arm_flex_r	arm_add_r	arm_rot_r	elbow_flex_r	pro_sup_r	wrist_flex_r	wrist_dev_r	arm_flex_l	arm_add_l	arm_rot_l	elbow_flex_l	pro_sup_l	wrist_flex_l	wrist_dev_l
      0.00000000	     -0.26466697	     -4.67777387	     97.63492841	      0.28496953	      0.46045187	      0.89820258	     -0.05272766	      0.48807209	      3.34343220	      1.90534953	      0.03325462	     23.35671044	     -8.19361102	      0.00000000	      1.98154844	      0.39360488	     17.82319407	      0.77824130	      0.01358287	     25.21905414	    -13.58455085	      0.00000000	      0.10844866	     -0.12598485	      0.89890271	      0.20140001	     -0.16755985	      0.95508413	      0.17817030	     -0.30631957	      0.95508413	      0.12394597	     -0.30631957	      0.78653988	      0.10070543	     -0.25690831	      0.73035846	      0.06196756	     -0.19515053	      0.67417704	      0.77463794	     -1.42516583	      4.99942723	      0.00000000	      0.00000000	     18.35435108	     -0.28877800	    -12.32196705	     20.77293393	    -12.14968570	     66.35602404	     49.47622240	     32.05052377	      7.31931695	     12.35134238	     19.26773854	    -10.41847565	     49.68404628	     57.21613162	     80.97034987	     10.94496124	     29.35393275
      0.01694915	     -0.36143961	     -4.59145489	     98.59014616	      0.28413824	      0.46036039	      0.89596381	     -0.35615378	      0.49126602	      2.42060525	      2.21574900	      0.03867212	     23.03072485	     -8.99536343	      0.00000000	      1.84584672	      0.48192149	     17.78531739	      1.06904238	      0.01865831	     25.69713788	    -12.41146190	      0.00000000	      0.12004365	     -0.15154678	      0.92436166	      0.22293305	     -0.20155721	      0.98213426	      0.19721971	     -0.36847083	      0.98213426	      0.13719788	     -0.36847083	      0.80881645	      0.11147253	     -0.30903419	      0.75104385	      0.06859294	     -0.23474596	      0.69327124	      0.85745976	     -1.71432745	      5.14102223	      0.00000000	      0.00000000	     18.43493575	     -0.57819507	    -13.54308575	     19.68105804	    -12.64853086	     66.91598252	     50.30690038	     32.49338480	      7.91444542	     13.42960686	     19.93085688	    -10.75052388	     52.43622767	     56.80659832	     84.51569478	     15.47327473	     27.43569214
      0.03389831	     -0.28479676	     -4.55426271	     99.20644185	      0.28339170	      0.46025358	      0.89443615	     -0.43995810	      0.62895204	      1.83327858	      2.53510893	      0.04424600	     22.79326224	     -9.60022491	      0.00000000	      1.85182526	      0.42913801	     17.40032393	      1.45525620	      0.02539901	     25.97615591	    -11.58788899	      0.00000000	      0.14016976	     -0.14914634	      0.89538142	      0.26030926	     -0.19836463	      0.95134276	      0.23028490	     -0.36263441	      0.95134276	      0.16020002	     -0.36263441	      0.78345874	      0.13016164	     -0.30413922	      0.72749740	      0.08009300	     -0.23102768	      0.67153607	      1.00121858	     -1.68717324	      4.97984285	      0.00000000	      0.00000000	     18.35254813	     -0.77393741	    -14.04187984	     19.03426487	    -12.92395059	     68.08724805	     50.81284395	     32.45263203	      8.17150869	     14.20899071	     19.92146294	    -10.87573994	     53.88299296	     56.45679917	     85.36143784	     17.94801548	     26.75278696
      0.05084746	     -0.26519560	     -4.42433517	     99.36612253	      0.28308457	      0.46041555	      0.89309318	     -0.60008786	      0.67470727	      1.69704404	      2.71199789	      0.04733329	     22.66017004	     -9.68183170	      0.00000000	      1.65169981	      0.39390276	     17.24413972	      1.68673652	      0.02943911	     25.79946262	    -11.60090701	      0.00000000	      0.13850357	     -0.14828054	      0.89918717	      0.25721498	     -0.19721312	      0.95538637	      0.22754751	     -0.36052931	      0.95538637	      0.15829573	     -0.36052931	      0.78678878	      0.12861441	     -0.30237368	      0.73058958	      0.07914094	     -0.22968656	      0.67439038	      0.98931714	     -1.67737913	      5.00100930	      0.00000000	      0.00000000	     18.46302934	     -0.75964176	    -14.09775954	     18.24892684	    -12.92306396	     68.61229557	     50.92743369	     32.46877970	      8.24543961	     14.35253405	     19.27977210	    -10.91716076	     54.26089196	     56.39515711	     85.29690905	     18.13314505	     26.75718925
      0.06779661	      0.08803606	     -4.28729064	    100.02760538	      0.28150284	      0.46044121	      0.89271965	     -0.63002446	      1.04978575	      1.19418790	      2.95797868	      0.05162647	     22.52479544	    -10.21158666	      0.00000000	      1.83347843	      0.13969662	     16.96072158	      2.42152463	      0.04226358	     26.01777271	    -11.22477314	      0.00000000	      0.15237310	     -0.10889649	      0.77775667	      0.28297208	     -0.14483233	      0.82636646	      0.25033376	     -0.26477092	      0.82636646	      0.17414721	     -0.26477092	      0.68053709	      0.14149366	     -0.22206172	      0.63192730	      0.08706599	     -0.16868066	      0.58331750	      1.08838580	     -1.23185887	      4.32564928	      0.00000000	      0.00000000	     17.58561813	     -0.40550362	    -14.64930619	     18.15873074	    -13.32324598	     70.34438736	     51.32968412	     31.68521430	      8.41886197	     14.68425829	     18.90618398	    -10.69928458	     54.77775387	     55.62126201	     83.00574719	     19.40028698	     26.44243650
      0.08474576	      0.17371924	     -4.02324558	    100.49938754	      0.28075769	      0.46081711	      0.89283350	     -0.90440467	      1.19199322	      1.13092880	      2.89879598	      0.05059353	     22.44019629	    -10.71116703	      0.00000000	      1.81637092	      0.03222668	     15.07335744	      3.01677830	      0.05265271	     26.59533348	     -8.51983769	      0.00000000	      0.12727973	     -0.09141263	      0.61562370	      0.23637119	     -0.12157880	      0.65410018	      0.20910787	     -0.22226067	      0.65410018	      0.14546801	     -0.22226067	      0.53867074	      0.11819196	     -0.18640864	      0.50019426	      0.07272764	     -0.14159816	      0.46171778	      0.90914640	     -1.03407795	      3.42391433	      0.00000000	      0.00000000	     17.44454324	     -0.43268166	    -13.97342811	     19.25894082	    -13.35666843	     75.19107525	     51.33242641	     23.96894171	      7.00616187	     12.93076300	     18.92668618	    -10.93017000	     56.64900798	     54.83331670	     71.11245914	     16.91387345	     28.61519424
      0.10169492	      0.32213912	     -3.78444730	    100.80883667	      0.27995498	      0.46115921	      0.89278655	     -1.10834584	      1.36957212	      0.97880305	      2.87484938	      0.05017559	     22.56180483	    -10.70530936	      0.00000000	      1.73313381	     -0.10573128	     14.74961046	      3.41649389	      0.05962907	     26.58068331	     -8.24840994	      0.00000000	      0.11378690	     -0.06722563	      0.49860196	      0.21131366	     -0.08941009	      0.52976459	      0.18694050	     -0.16345241	      0.52976459	      0.13004705	     -0.16345241	      0.43627672	      0.10566252	     -0.13708651	      0.40511410	      0.06501784	     -0.10413251	      0.37395147	      0.81276847	     -0.76046981	      2.77307454	      0.00000000	      0.00000000	     17.05589552	     -0.11099331	    -13.36725160	     19.62629084	    -13.38449564	     77.63736128	     51.23836049	     22.19124933	      6.77912899	     11.96435711	     18.72351052	    -10.92794764	     57.74830895	     54.25622933	     63.43796314	     15.49644828	     29.49026951
